<?xml version="1.0" encoding="utf-8"?>
<!-- Generator: Adobe Illustrator 26.1.0, SVG Export Plug-In . SVG Version: 6.00 Build 0)  -->
<svg version="1.1" id="レイヤー_1" xmlns="http://www.w3.org/2000/svg" xmlns:xlink="http://www.w3.org/1999/xlink" x="0px"
	 y="0px" viewBox="0 0 86 86" style="enable-background:new 0 0 86 86;" xml:space="preserve">
<style type="text/css">
	.st0{enable-background:new    ;}
	.st1{fill:#F5FF00;}
</style>
<g id="グループ_6074" transform="translate(-554 -236)">
	<g transform="matrix(1, 0, 0, 1, 554, 236)">
		<g class="st0">
			<path class="st1" d="M23.9,31.5c5.1,0,6.9,3.9,6.9,8.9c0,5.5-3,8.7-7.6,8.7c-4.1,0-6.3-2.1-7.1-3c-0.2-0.2-0.4-0.6-0.4-1
				c0-0.6,0.7-1.4,1.5-1.4c0.3,0,0.6,0.1,0.9,0.5c0.8,0.9,2.4,2.3,4.9,2.3c2.4,0,4.9-1.5,4.9-6.1c0-3.3-0.9-6.1-4.9-6.1
				c-1.7,0-2.7,0.8-3.5,1.6c-0.6,0.5-1.1,0.9-1.7,0.9c-1,0-1.8-0.5-1.8-1.8V23.8c0-0.8,0.5-1.3,1.2-1.3H28c0.9,0,1.3,0.6,1.3,1.3
				c0,0.7-0.4,1.3-1.3,1.3h-8.8c-0.3,0-0.3,0.1-0.3,0.3v7.2c0,0.2,0.1,0.3,0.3,0.3c0.2,0,0.2-0.1,0.2-0.1
				C21.1,31.7,22.6,31.5,23.9,31.5z"/>
			<path class="st1" d="M42.2,49.2c-7.1,0-8.1-6-8.1-13.4s1-13.4,8.1-13.4s8.1,6,8.1,13.4S49.3,49.2,42.2,49.2z M37,36
				c0,4.8,0.1,10.4,5.2,10.4c5.2,0,5.2-5.6,5.2-10.4v-0.5c0-4.8-0.1-10.4-5.2-10.4c-5.2,0-5.2,5.6-5.2,10.4V36z"/>
			<path class="st1" d="M62,49.2c-7.1,0-8.1-6-8.1-13.4s1-13.4,8.1-13.4s8.1,6,8.1,13.4S69.1,49.2,62,49.2z M56.7,36
				c0,4.8,0.1,10.4,5.2,10.4s5.2-5.6,5.2-10.4v-0.5c0-4.8-0.1-10.4-5.2-10.4s-5.2,5.6-5.2,10.4C56.7,35.5,56.7,36,56.7,36z"/>
		</g>
		<g class="st0">
			<path class="st1" d="M30.1,64.4l-3.8-8H29l1.3,3.1c0.4,0.9,0.7,1.8,1.1,2.8h0.1c0.4-1,0.8-1.9,1.1-2.8l1.3-3.1h2.6l-3.8,8V69
				h-2.5L30.1,64.4L30.1,64.4z"/>
			<path class="st1" d="M37.9,56.4h7.7v2.1h-5.2v2.9h4.4v2.1h-4.4v3.4h5.4V69h-7.9V56.4z"/>
			<path class="st1" d="M48.3,56.4h2.6l3.7,6.7l1.3,2.7H56c-0.1-1.3-0.3-3-0.3-4.4v-5H58V69h-2.5l-3.6-6.7l-1.3-2.7h-0.1
				c0.1,1.4,0.3,2.9,0.3,4.4v5h-2.4V56.4H48.3z"/>
		</g>
	</g>
	<path id="パス_14124" class="st1" d="M597,240c-5.5,0-10.9,1-16,3.1c-4.8,2-9.3,4.8-13,8.5c-3.7,3.6-6.7,7.8-8.8,12.6
		c-4.3,9.8-4.3,20.9,0,30.7c2.1,4.7,5.1,9,8.8,12.6c3.8,3.6,8.2,6.5,13,8.5c10.3,4.2,21.7,4.2,32,0c4.8-2,9.3-4.8,13-8.5
		c3.7-3.6,6.7-7.8,8.8-12.6c4.3-9.8,4.3-20.9,0-30.7c-2.1-4.7-5.1-9-8.8-12.6c-3.8-3.6-8.2-6.5-13-8.5C607.9,241,602.5,240,597,240
		 M597,238c23.7,0,43,18.6,43,41.5S620.7,321,597,321s-43-18.6-43-41.5S573.3,238,597,238z"/>
</g>
</svg>
