<?xml version="1.0" encoding="utf-8"?>
<!-- Generator: Adobe Illustrator 26.2.1, SVG Export Plug-In . SVG Version: 6.00 Build 0)  -->
<svg version="1.1" id="レイヤー_1" xmlns="http://www.w3.org/2000/svg" xmlns:xlink="http://www.w3.org/1999/xlink" x="0px"
	 y="0px" viewBox="0 0 70.1 44" style="enable-background:new 0 0 70.1 44;" xml:space="preserve">
<style type="text/css">
	.st0{enable-background:new    ;}
	.st1{fill:#F5FF00;}
</style>
<g class="st0">
	<path class="st1" d="M29,19.8c0,1-0.2,2-0.5,2.9c-0.4,0.9-0.9,1.8-1.5,2.6c-0.6,0.9-1.4,1.7-2.3,2.5s-1.8,1.6-2.8,2.4
		c-1.1,0.8-2.3,1.6-3.8,2.4c-1.4,0.8-2.9,1.4-4.3,2c-1.5,0.6-2.8,1.1-4.1,1.4c-1.3,0.4-2.3,0.5-3.1,0.5c-0.5,0-0.9-0.1-1.2-0.2
		c-0.2-0.1-0.4-0.4-0.4-0.9c0-0.3,0.1-0.7,0.4-1.1c0.2-0.4,0.5-0.7,0.7-0.7c0.2,0,0.4,0.1,0.5,0.2c0.1,0.1,0.2,0.3,0.2,0.5
		c0,0.1,0,0.2,0,0.2c0,0.1,0,0.1,0,0.1v0.1c1.1-0.1,2.6-0.5,4.5-1c1.9-0.6,4.1-1.6,6.7-3c1.1-0.6,2.2-1.3,3.3-2.2
		c1.1-0.8,2.1-1.7,2.9-2.7c0.9-1,1.6-2,2.1-3c0.5-1,0.8-2.1,0.8-3.1c0-0.7-0.4-1.4-1.1-2.2c-0.7-0.7-1.6-1.5-2.7-2.1
		c-1.1-0.7-2.3-1.2-3.6-1.7c-1.3-0.5-2.5-0.8-3.6-1c0,0.1,0.1,0.5,0.1,1.1c0.1,0.6,0.1,1.2,0.3,2c0.1,0.8,0.3,1.6,0.4,2.4
		c0.2,0.9,0.3,1.7,0.5,2.4c0.2,0.8,0.4,1.4,0.5,1.8c0.1,0.4,0.1,0.7,0.2,1c0,0.3,0.1,0.7,0.2,1.1c0.1,0.5,0.1,0.9,0.2,1.4
		c0,0.5,0.1,0.9,0.1,1.4c0,0.4,0.1,0.8,0.1,1c0,0.3-0.1,0.5-0.2,0.8c-0.1,0.3-0.2,0.4-0.4,0.4c-0.4,0-0.6-0.1-0.7-0.4
		s-0.2-0.7-0.4-1.3c-0.1-0.6-0.2-1.4-0.4-2.4c-0.1-1-0.4-2.2-0.8-3.6c-0.6-2-1-3.8-1.2-5.6c-0.2-1.7-0.4-3.1-0.4-4.2
		c-0.3,0-0.5,0-0.7,0s-0.5,0-0.7,0c-0.3,0-0.5,0-0.8,0c-0.5,0-1,0.1-1.4,0.3c-0.4,0.2-0.8,0.4-1,0.6c-0.3,0.2-0.5,0.4-0.7,0.6
		c-0.2,0.2-0.3,0.3-0.4,0.3c-0.2,0-0.5-0.1-0.9-0.2c-0.4-0.1-0.5-0.3-0.5-0.6c0-0.4,0.2-0.8,0.5-1.2c0.4-0.4,0.8-0.7,1.3-1.1
		c0.5-0.3,1.1-0.6,1.7-0.7c0.6-0.2,1.2-0.3,1.7-0.3c0.9,0,1.9,0.1,3.1,0.4c1.2,0.2,2.4,0.6,3.6,1c1.2,0.4,2.5,0.9,3.7,1.5
		c1.2,0.6,2.3,1.2,3.3,1.9c1,0.7,1.7,1.5,2.3,2.3C28.7,18.1,29,18.9,29,19.8z"/>
	<path class="st1" d="M35.3,12.8c0,0.1-0.1,0.2-0.3,0.4c-0.2,0.2-0.4,0.4-0.7,0.5c-0.3,0.2-0.6,0.4-0.9,0.5
		c-0.3,0.1-0.5,0.2-0.7,0.2c-0.1,0-0.3,0-0.5,0c-0.2,0-0.4-0.1-0.6-0.2c-0.2-0.1-0.4-0.2-0.5-0.4c-0.1-0.2-0.2-0.4-0.2-0.6
		c0-0.4,0.1-0.8,0.4-1.2c0.3-0.4,0.7-0.5,1.1-0.5c0.1,0,0.3,0,0.6,0.1c0.3,0.1,0.6,0.2,0.9,0.3c0.3,0.1,0.6,0.2,0.9,0.4
		C35.1,12.4,35.3,12.6,35.3,12.8z M36.7,29.2c0,0.2-0.2,0.4-0.5,0.5c-0.3,0.1-0.5,0.2-0.7,0.2c-0.3,0-0.6-0.2-0.8-0.6
		c-0.2-0.4-0.4-0.8-0.6-1.3c-0.2-0.5-0.3-1-0.4-1.4c-0.1-0.5-0.2-0.8-0.3-0.9c-0.1-0.3-0.2-0.6-0.4-1.1c-0.1-0.4-0.3-0.8-0.4-1.2
		c-0.1-0.4-0.2-0.7-0.3-1c-0.1-0.3-0.1-0.5-0.1-0.5c0-0.4,0.1-0.8,0.2-1.1c0.2-0.4,0.4-0.5,0.6-0.5c0.3,0,0.5,0.2,0.8,0.6
		c0.3,0.4,0.6,0.9,0.9,1.6c0.3,0.6,0.5,1.3,0.8,2.1c0.2,0.7,0.4,1.5,0.6,2.1c0.2,0.7,0.3,1.2,0.4,1.7C36.7,28.8,36.7,29.1,36.7,29.2
		z"/>
	<path class="st1" d="M51.7,28.4c0,0.1,0,0.1,0,0.3c0,0.2-0.1,0.4-0.4,0.8c-0.1,0.1-0.3,0.3-0.6,0.6c-0.3,0.3-0.7,0.5-1.2,0.8
		c-0.5,0.3-1.1,0.5-1.8,0.7c-0.7,0.2-1.6,0.3-2.5,0.3c-0.7,0-1.3-0.2-2-0.5C42.6,31,42,30.6,41.5,30c-0.5-0.6-0.9-1.3-1.2-2.2
		c-0.3-0.9-0.5-1.9-0.5-3.1c0-1.1,0.1-2.2,0.4-3.2c0.3-1,0.7-1.9,1.1-2.6c0.5-0.8,1-1.4,1.5-1.8c0.6-0.4,1.1-0.7,1.6-0.7
		c0.5,0,0.9,0.1,1.4,0.3s0.9,0.4,1.3,0.7c0.4,0.3,0.7,0.6,0.9,1c0.2,0.4,0.4,0.7,0.4,1.1c0,0.4-0.2,0.9-0.6,1.4
		c-0.4,0.5-0.9,0.9-1.4,1.3c-0.6,0.4-1.1,0.7-1.7,1c-0.6,0.2-1,0.4-1.3,0.4c-0.2,0-0.3-0.1-0.5-0.2c-0.1-0.2-0.2-0.4-0.2-0.6
		c0-0.4,0.2-0.7,0.6-1c0.4-0.2,0.8-0.4,1.2-0.6c0.4-0.2,0.8-0.4,1.2-0.7c0.4-0.3,0.5-0.6,0.5-1.1c0-0.1-0.1-0.2-0.2-0.4
		c-0.1-0.2-0.5-0.4-1.2-0.4c-0.3,0-0.6,0.2-1,0.5c-0.4,0.3-0.7,0.8-1.1,1.4c-0.4,0.6-0.6,1.2-0.9,2c-0.2,0.8-0.4,1.6-0.4,2.5
		c0,0.8,0.1,1.5,0.4,2.1c0.3,0.6,0.6,1.1,1.1,1.6s1,0.8,1.5,1c0.6,0.2,1.2,0.4,1.8,0.4c0.4,0,0.9-0.1,1.4-0.3c0.5-0.2,1-0.4,1.5-0.6
		c0.5-0.2,0.9-0.4,1.2-0.6c0.3-0.2,0.5-0.3,0.6-0.3c0.1,0,0.2,0,0.3,0.1C51.6,28.2,51.7,28.3,51.7,28.4z"/>
	<path class="st1" d="M66.5,13.1c-0.4,0.4-0.9,0.9-1.6,1.3c-0.7,0.4-1.4,0.8-2.1,1.2c-0.7,0.4-1.3,0.7-1.8,0.9
		c-0.5,0.2-0.8,0.4-0.8,0.5s0.1,0.4,0.2,0.8c0.1,0.4,0.3,1,0.4,1.6c0.2,0.6,0.3,1.2,0.5,1.9c0.2,0.6,0.3,1.2,0.4,1.7
		c0.1,0.3,0.1,0.7,0.2,1.1c0.1,0.5,0.2,0.9,0.2,1.4c0.1,0.5,0.1,0.9,0.2,1.3c0.1,0.4,0.1,0.6,0.1,0.6c0,0.4-0.1,0.9-0.2,1.4
		c-0.1,0.5-0.4,0.7-0.7,0.7c-0.2,0-0.3-0.1-0.5-0.2c-0.1-0.1-0.3-0.3-0.4-0.5c-0.1-0.2-0.2-0.4-0.3-0.5c-0.1-0.2-0.1-0.3-0.1-0.4
		c0-0.1,0-0.1,0-0.3c0-0.1,0-0.2,0-0.4c0-0.6-0.1-1.4-0.3-2.4c-0.1-0.3-0.2-0.8-0.4-1.5c-0.2-0.7-0.4-1.4-0.5-2.1
		c-0.2-0.8-0.4-1.7-0.7-2.7c-0.1-0.4-0.2-0.6-0.2-0.6c-0.2,0-0.5,0.1-1,0.4c-0.5,0.2-1,0.6-1.6,0.9c-0.6,0.4-1.3,0.8-1.9,1.2
		c-0.7,0.4-1.3,0.8-1.9,1.2c-0.6,0.4-1.1,0.7-1.5,0.9c-0.4,0.2-0.7,0.4-0.8,0.4c-0.4,0-0.7-0.1-0.9-0.4c-0.2-0.3-0.4-0.6-0.4-0.9
		c0-0.2,0.2-0.4,0.7-0.8c0.5-0.3,1.1-0.7,1.8-1.1c0.7-0.4,1.5-0.8,2.3-1.3c0.8-0.4,1.6-0.8,2.3-1.2c0.7-0.4,1.6-0.8,2.5-1.2
		c-0.3-1.3-0.5-2.6-0.7-3.6c-0.1-0.9-0.3-1.7-0.4-2.5c-0.1-0.8-0.2-1.2-0.2-1.2c0-0.4,0.1-0.7,0.2-0.9c0.2-0.2,0.3-0.3,0.5-0.3
		c0.3,0,0.5,0.2,0.6,0.7c0.3,1.6,0.6,3,0.9,4.2c0.3,1.2,0.5,2.2,0.8,3c0.3-0.1,0.7-0.2,1.4-0.5c0.6-0.3,1.3-0.6,2-0.9
		c0.7-0.3,1.3-0.6,1.9-0.9c0.6-0.2,0.9-0.4,1-0.4c0.2,0,0.3,0.1,0.3,0.2C66.4,12.9,66.4,13,66.5,13.1z"/>
</g>
</svg>
